<svg width="33" height="32" viewBox="0 0 33 32" fill="none" xmlns="http://www.w3.org/2000/svg">
<path d="M4.73988 0.0459256L22.8328 10.1427L18.5588 14.2804L4.37602 0.543765C4.12075 0.295202 4.41691 -0.131925 4.72859 0.0394973L4.73988 0.0459256Z" fill="white"/>
<path d="M1.83337 30.0342V1.96373C1.83356 1.90283 1.85149 1.84334 1.88492 1.79272C1.91835 1.7421 1.96579 1.70261 2.0213 1.67919C2.0768 1.65577 2.13789 1.64947 2.19691 1.66108C2.25593 1.67269 2.31026 1.70169 2.35307 1.74445L16.7827 15.9997L2.35307 30.2534C2.31026 30.2962 2.25593 30.3252 2.19691 30.3368C2.13789 30.3484 2.0768 30.3421 2.0213 30.3187C1.96579 30.2953 1.91835 30.2558 1.88492 30.2052C1.85149 30.1545 1.83356 30.0951 1.83337 30.0342Z" fill="white"/>
<path d="M4.37763 31.4555C4.12096 31.7041 4.41712 32.1312 4.73021 31.9598L4.74149 31.9534L22.833 21.8566L18.559 17.7175L4.37763 31.4555Z" fill="white"/>
<path d="M25.0843 11.3955L30.1367 14.214C31.5111 14.9832 31.5111 17.016 30.1367 17.7853L25.0843 20.6016L20.3337 15.9996L25.0843 11.3955Z" fill="white"/>
</svg>
