<svg width="88" height="88" viewBox="0 0 88 88" fill="none" xmlns="http://www.w3.org/2000/svg">
<circle cx="44" cy="44" r="44" fill="#111111"/>
<circle cx="44" cy="44" r="43" stroke="white" stroke-opacity="0.1" stroke-width="2"/>
<circle cx="43.96" cy="43.962" r="36.96" fill="#0C0C0C"/>
<path fill-rule="evenodd" clip-rule="evenodd" d="M68.0605 36.533L51.467 19.9395C49.704 18.1765 47.4725 17.1671 45.1732 16.9116L45.1732 32.3251C47.7739 32.5849 50.3044 33.711 52.2967 35.7033C54.289 37.6956 55.4151 40.2261 55.6749 42.8268L71.0885 42.8268C70.8329 40.5275 69.8236 38.2961 68.0605 36.533ZM53.3135 42.8268C53.0633 40.8291 52.1712 38.8965 50.6374 37.3626C49.1035 35.8288 47.1709 34.9367 45.1732 34.6865V42.8268L53.3135 42.8268ZM42.8266 32.3251L42.8266 16.9116C40.5273 17.1672 38.296 18.1765 36.533 19.9395L19.9395 36.533C18.1764 38.2961 17.1671 40.5275 16.9115 42.8268H32.3251C32.5849 40.2261 33.711 37.6956 35.7033 35.7033C37.6955 33.711 40.2259 32.585 42.8266 32.3251ZM34.6865 42.8268C34.9367 40.8291 35.8288 38.8965 37.3626 37.3626C38.8964 35.8288 40.829 34.9368 42.8266 34.6865V42.8268L34.6865 42.8268ZM32.3251 45.1735H16.9116C17.1672 47.4727 18.1765 49.704 19.9395 51.4671L36.533 68.0605C38.296 69.8235 40.5273 70.8329 42.8266 71.0885V55.6748C40.2259 55.415 37.6955 54.2889 35.7033 52.2967C33.7111 50.3045 32.585 47.7741 32.3251 45.1735ZM42.8266 53.3134C40.829 53.0632 38.8964 52.1712 37.3626 50.6374C35.8288 49.1036 34.9368 47.1711 34.6865 45.1735L42.8266 45.1735L42.8266 53.3134ZM45.1732 53.3135L45.1732 45.1735L53.3135 45.1735C53.0632 47.1711 52.1712 49.1036 50.6374 50.6374C49.1035 52.1712 47.1709 53.0632 45.1732 53.3135ZM45.1732 55.6749C47.7739 55.415 50.3044 54.289 52.2967 52.2967C54.2889 50.3045 55.415 47.7741 55.6749 45.1735L71.0884 45.1735C70.8328 47.4727 69.8235 49.704 68.0605 51.4671L51.467 68.0605C49.704 69.8236 47.4725 70.8329 45.1732 71.0885V55.6749ZM53.1264 18.2802C48.086 13.2398 39.914 13.2398 34.8736 18.2802L18.2802 34.8736C13.2398 39.914 13.2398 48.0861 18.2802 53.1264L34.8736 69.7199C39.914 74.7602 48.086 74.7602 53.1264 69.7199L69.7198 53.1264C74.7602 48.0861 74.7602 39.914 69.7198 34.8736L53.1264 18.2802Z" fill="white" fill-opacity="0.05"/>
<path d="M50.16 1L44.6623 7.28312C44.3117 7.68381 43.6884 7.68381 43.3378 7.28312L37.84 0.999999L50.16 1Z" fill="#4B59F5"/>
<path d="M59.4 3.77027C54.6069 1.9792 49.4178 1 44 1C38.5822 1 33.3931 1.9792 28.6 3.77027" stroke="#4B59F5" stroke-width="2"/>
</svg>
