<svg width="32" height="33" viewBox="0 0 32 33" fill="none" xmlns="http://www.w3.org/2000/svg">
<path d="M24.9403 17.5204C24.9565 16.2939 25.2903 15.0914 25.9104 14.0246C26.5306 12.9578 27.4172 12.0616 28.4875 11.4191C27.8076 10.4711 26.9105 9.69091 25.8677 9.14052C24.8248 8.59013 23.6648 8.28471 22.4799 8.24852C19.9522 7.98951 17.5018 9.72508 16.2137 9.72508C14.9008 9.72508 12.9176 8.27424 10.7821 8.31713C9.40078 8.3607 8.05458 8.75283 6.87466 9.45532C5.69474 10.1578 4.72134 11.1467 4.0493 12.3256C1.13817 17.246 3.30961 24.4773 6.09822 28.4546C7.49343 30.4021 9.12402 32.5776 11.2576 32.5004C13.3455 32.4159 14.1252 31.2007 16.6455 31.2007C19.1423 31.2007 19.8739 32.5004 22.0508 32.4514C24.2911 32.4159 25.7027 30.4952 27.0489 28.5292C28.0513 27.1415 28.8227 25.6078 29.3344 23.9848C28.0329 23.4474 26.9221 22.5478 26.1407 21.3983C25.3593 20.2487 24.9419 18.9001 24.9403 17.5204Z" fill="white"/>
<path d="M20.829 5.63226C22.0505 4.2007 22.6523 2.36067 22.5066 0.50293C20.6403 0.694284 18.9164 1.56503 17.6784 2.94166C17.0731 3.61419 16.6095 4.39658 16.3141 5.24412C16.0187 6.09166 15.8973 6.98773 15.9569 7.8811C16.8903 7.89048 17.8138 7.69297 18.6577 7.30343C19.5016 6.9139 20.244 6.34249 20.829 5.63226Z" fill="white"/>
</svg>
