<svg width="33" height="32" viewBox="0 0 33 32" fill="none" xmlns="http://www.w3.org/2000/svg">
<path d="M17.6739 2.64859L29.4076 0.0307338C30.317 -0.165605 31.1677 0.603406 31.1677 1.63418V12.7273C31.1677 13.6272 30.5076 14.3635 29.7009 14.3635H17.9672C17.1605 14.3635 16.5005 13.6272 16.5005 12.7273V4.25204C16.5005 3.46669 16.9845 2.79585 17.6739 2.64859Z" fill="white"/>
<path d="M17.6739 29.3507L29.4076 31.9686C30.317 32.1649 31.1677 31.3959 31.1677 30.3651V19.272C31.1677 18.3721 30.5076 17.6358 29.7009 17.6358H17.9672C17.1605 17.6358 16.5005 18.3721 16.5005 19.272V27.7473C16.5005 28.5326 16.9845 29.2035 17.6739 29.3507Z" fill="white"/>
<path d="M11.7923 3.82676L2.99205 5.90466C2.31736 6.06827 1.83337 6.73912 1.83337 7.50811V12.7275C1.83337 13.6273 2.4934 14.3636 3.30009 14.3636H12.1004C12.9071 14.3636 13.5671 13.6273 13.5671 12.7275V5.41383C13.5671 4.38305 12.7017 3.5977 11.7923 3.82676Z" fill="white"/>
<path d="M2.99205 26.0948L11.7923 28.1727C12.7017 28.4018 13.5671 27.6164 13.5671 26.5856V19.272C13.5671 18.3721 12.9071 17.6358 12.1004 17.6358H3.30009C2.4934 17.6358 1.83337 18.3721 1.83337 19.272V24.4913C1.83337 25.2603 2.31736 25.9312 2.99205 26.0948Z" fill="white"/>
</svg>
